<?xml version="1.0" encoding="UTF-8"?><svg id="Capa_2" xmlns="http://www.w3.org/2000/svg" viewBox="0 0 483.99 484.01"><defs><style>.cls-1{fill:#fff;}.cls-2{fill:#ffe601;}.cls-3{font-family:Righteous-Regular, Righteous;font-size:100px;}.cls-3,.cls-4{fill:#1d1d1b;}.cls-5{stroke-width:21.21px;}.cls-5,.cls-6,.cls-7,.cls-8{fill:none;stroke:#1d1d1b;}.cls-5,.cls-6,.cls-8{stroke-linecap:round;stroke-linejoin:round;}.cls-6,.cls-7{stroke-width:8px;}.cls-7{stroke-miterlimit:10;}.cls-8{stroke-width:19.24px;}</style></defs><g id="Capa_2-2"><g><circle class="cls-2" cx="242.01" cy="241.99" r="108.04"/><text class="cls-3" transform="translate(137.37 313.26) rotate(-109.55)"><tspan x="0" y="0">C</tspan></text><text class="cls-3" transform="translate(117.6 260.81) rotate(-85.33)"><tspan x="0" y="0">o</tspan></text><text class="cls-3" transform="translate(122.35 209.26) rotate(-65.47)"><tspan x="0" y="0">f</tspan></text><text class="cls-3" transform="translate(136.35 177.05) rotate(-49.27)"><tspan x="0" y="0">f</tspan></text><text class="cls-3" transform="translate(156.88 150.12) rotate(-30.73)"><tspan x="0" y="0">e</tspan></text><text class="cls-3" transform="translate(196.3 125.42) rotate(-9.33)"><tspan x="0" y="0">e</tspan></text><text class="cls-3" transform="translate(243.52 118.74) rotate(7.2)"><tspan x="0" y="0"> </tspan></text><text class="cls-3" transform="translate(268.03 121.5) rotate(18.75)"><tspan x="0" y="0"> </tspan></text><text class="cls-3" transform="translate(291.52 129.13) rotate(30.23)"><tspan x="0" y="0"> </tspan></text><text class="cls-3" transform="translate(314.75 135.31) rotate(52.76)"><tspan x="0" y="0">W</tspan></text><text class="cls-3" transform="translate(359.03 194.46) rotate(82.09)"><tspan x="0" y="0">a</tspan></text><text class="cls-3" transform="translate(366.03 249.03) rotate(102.86)"><tspan x="0" y="0">r</tspan></text><text class="cls-3" transform="translate(358.53 284.96) rotate(119.87)"><tspan x="0" y="0">r</tspan></text><text class="cls-3" transform="translate(339.33 317.23) rotate(133.16)"><tspan x="0" y="0">i</tspan></text><text class="cls-3" transform="translate(328.41 333.5) rotate(149.94)"><tspan x="0" y="0">o</tspan></text><text class="cls-3" transform="translate(282.97 359.22) rotate(170.33)"><tspan x="0" y="0">r</tspan></text><text class="cls-3" transform="translate(247.93 367.1) rotate(-170.63)"><tspan x="0" y="0">s</tspan></text><text class="cls-3" transform="translate(201.17 358.28) rotate(-154.08)"><tspan x="0" y="0"> </tspan></text><line class="cls-5" x1="173.13" y1="361.06" x2="299.83" y2="106.42"/><line class="cls-8" x1="247.62" y1="134.57" x2="308.87" y2="165.04"/><g><path class="cls-1" d="m202.14,303.18c-16.26-12.57-26.02-31.57-26.76-52.11l-2.07-57.24,67.73-21.69,66.84,21.7-1.27,57.63c-.47,21.44-10.62,41.08-27.83,53.88l-37.64,27.99-38.99-30.15Z"/><path class="cls-4" d="m241.01,179.49l59.74,19.39-1.15,52.42c-.42,19.27-9.54,36.92-25.01,48.42l-33.39,24.82-34.79-26.9c-14.61-11.3-23.38-28.37-24.05-46.83l-1.88-51.94,60.52-19.39m.03-14.71l-74.93,24,2.27,62.54c.82,22.56,11.62,43.59,29.47,57.4l43.19,33.39,41.9-31.15c18.82-13.99,30.14-35.9,30.65-59.35l1.38-62.83-73.94-24h0Z"/></g><path class="cls-6" d="m275.82,248.85c1.53,5.05,1.94,10.18,1.37,15.11-1.64,14.46-11.66,27.25-26.48,31.73-19.86,6-40.84-5.23-46.84-25.1-.48-1.59-.85-3.2-1.12-4.8-1.14-6.91-.28-13.81,2.2-20.02l56.22-16.99h0c2,1.36,3.87,2.93,5.57,4.68,4.09,4.19,7.26,9.39,9.07,15.38Z"/><path class="cls-7" d="m290.16,236.93l3.48,11.52c1.61,5.34-1.4,10.96-6.74,12.58l-9.71,2.93c.56-4.93.15-10.06-1.37-15.11-1.81-5.99-4.98-11.2-9.07-15.38l10.84-3.28c5.34-1.61,10.96,1.4,12.58,6.74Z"/><polygon class="cls-7" points="261.11 212.59 261.39 227.27 261.39 227.27 205.17 244.26 194.88 217.03 261.11 212.59"/><path class="cls-4" d="m242.14,299.62c-31.16,5.57-46-42.18-36.83-41.95,7.94.2,36.35-.39,36.35-.39l34.9-1s5.1,36.27-34.43,43.34Z"/><text/></g></g></svg>