<?xml version="1.0" encoding="UTF-8"?><svg id="Capa_2" xmlns="http://www.w3.org/2000/svg" viewBox="0 0 148.87 177.33"><defs><style>.cls-1{stroke-linecap:round;stroke-linejoin:round;}.cls-1,.cls-2{fill:none;stroke:#1d1d1b;stroke-width:8px;}.cls-2{stroke-miterlimit:10;}.cls-3{fill:#1d1d1b;}</style></defs><g id="Capa_2-2"><path class="cls-1" d="m108.68,92.78c0,5.28-1.09,10.3-3.06,14.86-5.75,13.36-19.05,22.72-34.52,22.72-20.75,0-37.58-16.82-37.58-37.58,0-1.67.11-3.31.32-4.92.91-6.95,3.72-13.3,7.89-18.52h58.73c1.52,1.88,2.85,3.93,3.98,6.09,2.7,5.19,4.23,11.09,4.23,17.35Z"/><path class="cls-2" d="m125.86,85.52v12.03c0,5.57-4.52,10.09-10.09,10.09h-10.15c1.97-4.56,3.06-9.58,3.06-14.86,0-6.26-1.53-12.16-4.23-17.35h11.33c5.57,0,10.09,4.52,10.09,10.09Z"/><polygon class="cls-2" points="105.08 53.82 101.11 67.95 101.11 67.96 42.38 67.96 40.4 38.92 105.08 53.82"/><path class="cls-1" d="m107.29,82.62l-73.77,10.16,73.77-10.16Z"/><path class="cls-3" d="m78.18,129.7c-30.29,9.18-49.45-32.79-41.49-37.35s36.06-4.64,36.06-4.64l34.55-5.08s9.31,35.42-29.11,47.07Z"/><path class="cls-3" d="m74.9,14.71l59.74,19.39-1.15,52.42c-.42,19.27-9.54,36.92-25.01,48.42l-33.39,24.82-34.79-26.9c-14.61-11.3-23.38-28.37-24.05-46.83l-1.88-51.94,60.52-19.39m.03-14.71L0,24l2.27,62.54c.82,22.56,11.62,43.59,29.47,57.4l43.19,33.39,41.9-31.15c18.82-13.99,30.14-35.9,30.65-59.35l1.38-62.83L74.93,0h0Z"/></g></svg>